<?xml version="1.0" encoding="UTF-8"?>
<svg id="Layer_66" data-name="Layer 66" xmlns="http://www.w3.org/2000/svg" viewBox="0 0 450.28 231.61">
  <defs>
    <style>
      .cls-1 {
        fill: #ffebde;
      }

      .cls-1, .cls-2, .cls-3, .cls-4, .cls-5, .cls-6, .cls-7, .cls-8 {
        stroke: #570060;
      }

      .cls-1, .cls-2, .cls-4, .cls-5, .cls-6 {
        stroke-linecap: round;
        stroke-linejoin: round;
      }

      .cls-2, .cls-3, .cls-4, .cls-5, .cls-6, .cls-7, .cls-8 {
        fill: none;
      }

      .cls-3, .cls-7, .cls-8 {
        stroke-miterlimit: 10;
      }

      .cls-4, .cls-7 {
        stroke-width: .25px;
      }

      .cls-5, .cls-8 {
        stroke-width: .5px;
      }

      .cls-6 {
        stroke-width: .21px;
      }
    </style>
  </defs>
  <g>
    <path class="cls-1" d="M102.31,90.48c-17.64-2.52-32.48-36.78-30.01-54.43,2.47-17.65,11.11-25.3,28.38-29.71C121.51,1.02,141.83.21,159.64.58c56.18,1.17,111.51,19.27,165.48,34.9,26.42,7.65,47.88,19.76,71.18,35.18,19.06,12.62,40.68,40.71,48.83,62.07,2.52,6.6,4.48.2,4.02,6.37-.56,7.43-6.02,17.02-12.12,21.3-34.23,24.06-78.05,43.48-122.96,47.4-71.9,6.28-144.81,5.43-215.29,20.98-10.33,2.28-22.26,4.58-30.58-1.95-6.86-5.38-8.67-15.01-8.57-23.73.3-24.6,12.56-48.78,32.24-63.54-24.84,10.1-50.54,17.95-74.64,29.52-5.53,2.65-12.08-.63-13.36-6.62-7.65-35.59-1.49-75.83,10.25-110.87,2.05-6.13,9.5-8.49,14.69-4.64,19.16,14.24,38.28,31.71,57.45,44.52,5.66,3.78,9.41.51,16.04-.99Z"/>
    <path class="cls-3" d="M413.98,130.55c-1.76-.99-5.49-.96-6.89.49s-1.46,4.05,0,5.43c.65.6,1.5.94,2.37,1.11,2.2.43,4.76-.38,5.81-2.36,1.04-1.98-.22-4.96-2.46-5.09"/>
    <path class="cls-3" d="M416.61,127.85c-3.22-1.81-10.07-1.76-12.64.9-2.57,2.66-2.69,7.44.01,9.96,1.18,1.11,2.75,1.73,4.35,2.04,4.03.78,8.74-.69,10.65-4.33s-.41-9.1-4.51-9.34"/>
    <path class="cls-7" d="M355.47,163.43c1.36-6.4,4.75-12.16,8.08-17.79,2.38-4.01,4.9-8.18,8.86-10.66,5.86-3.67,13.43-2.78,20.16-1.21.57.13,1.16.28,1.63.62.46.33.78.81,1.07,1.3,1.88,3.17,2.74,6.92,2.45,10.59-.55,6.95-5.04,12.94-9.98,17.86-4.93,4.92-10.55,9.28-14.39,15.1-3.8,5.75-7.56,16.29-13.63,6.94-4.29-6.62-5.91-15.01-4.26-22.74Z"/>
    <path class="cls-8" d="M91.47,140.78c4-2.59,6.29-7.22,7.22-11.89.93-4.67.68-9.48.67-14.25,0-4.04.16-8.12-.64-12.07-.41-2.02-2.65-9.84-5.71-8.62-2.37.94-1.67,12.31-1.77,14.43-.5,10.79-.42,21.62.24,32.4Z"/>
    <path class="cls-7" d="M55.91,68.42c-4.51,3.97-3.3,11.08-2.7,17.05,2.37,23.47-10.62,47.51-3.9,70.12"/>
    <path class="cls-4" d="M15.67,152.25c10.94-5.01,24.33-8.4,37.4-11.68,9.21-2.31,19.94-5.84,29.43-6.91-9.54,4.22-21.45,7.74-32.51,10.79-8.52,2.35-27.68,4.76-34.31,7.81Z"/>
    <path class="cls-4" d="M15.11,139.71c11.25-4.28,24.84-6.79,38.1-9.2,9.35-1.7,20.29-4.52,29.83-4.97-9.81,3.58-21.92,6.32-33.17,8.63-8.66,1.78-27.94,2.93-34.76,5.54Z"/>
    <path class="cls-4" d="M13.74,125.04c11.91-2.97,25.79-3.91,39.32-4.8,9.54-.63,20.86-2.18,30.35-1.54-10.36,2.44-22.82,3.78-34.35,4.8-8.88.79-28.1-.26-35.32,1.55Z"/>
    <path class="cls-4" d="M84.74,105.41c-12.1-2.82-26.04-3.58-39.62-4.3-9.57-.5-21-1.91-30.44-1.15,10.51,2.31,23.06,3.49,34.65,4.36,8.93.67,28.07-.62,35.41,1.09Z"/>
    <path class="cls-4" d="M84,100.43c-11.15-4.15-24.71-6.51-37.94-8.78-9.33-1.6-20.22-4.3-29.78-4.65,9.73,3.47,21.79,6.07,33.01,8.26,8.64,1.69,27.95,2.64,34.71,5.17Z"/>
    <path class="cls-4" d="M83.96,93.63c-9.74-5.86-22.46-10.42-34.87-14.84-8.75-3.12-18.7-7.54-28.09-9.51,8.55,4.96,19.7,9.5,30.13,13.5,8.04,3.08,26.92,7.29,32.82,10.85Z"/>
    <path class="cls-4" d="M13.73,115.04c12.4-2.55,26.41-3.01,40.05-3.42,9.62-.29,21.19-1.45,30.53-.49-10.76,2.08-23.42,2.98-35.09,3.59-8.99.47-27.96-1.24-35.49.32Z"/>
    <path class="cls-4" d="M300.65,152.05c4.76-1.95,10.42-2.68,15.93-3.38,3.88-.49,8.46-1.57,12.38-1.29-4.15,1.61-9.2,2.57-13.89,3.32-3.61.58-11.53.16-14.42,1.35Z"/>
    <path class="cls-4" d="M300.65,147.21c4.76-1.95,10.42-2.68,15.93-3.38,3.88-.49,8.46-1.57,12.38-1.29-4.15,1.61-9.2,2.57-13.89,3.32-3.61.58-11.53.16-14.42,1.35Z"/>
    <path class="cls-4" d="M300.51,141.99c4.89-1.81,10.58-2.39,16.13-2.93,3.91-.38,8.56-1.33,12.45-.94-4.25,1.49-9.36,2.31-14.09,2.93-3.64.48-11.53-.16-14.49.94Z"/>
    <path class="cls-4" d="M329.83,132.06c-4.97-1.72-10.68-2.18-16.25-2.62-3.93-.31-8.61-1.17-12.49-.7,4.31,1.41,9.46,2.13,14.21,2.66,3.66.41,11.51-.38,14.53.67Z"/>
    <path class="cls-4" d="M329.5,128.07c-4.69-2.03-10.31-2.85-15.79-3.64-3.86-.55-8.4-1.71-12.33-1.49,4.09,1.67,9.1,2.71,13.76,3.54,3.59.64,11.52.35,14.36,1.58Z"/>
    <path class="cls-4" d="M329.1,123.99c-4.41-2.28-9.91-3.41-15.27-4.5-3.78-.77-8.15-2.17-12.09-2.17,3.86,1.89,8.72,3.21,13.26,4.29,3.49.84,11.43.99,14.11,2.37Z"/>
    <path class="cls-4" d="M300.31,136.47c5.09-1.56,10.83-1.83,16.43-2.09,3.95-.18,8.69-.89,12.52-.3-4.41,1.27-9.61,1.82-14.4,2.19-3.69.29-11.47-.75-14.56.19Z"/>
    <path class="cls-2" d="M336.1,128.99c-1.35-.37-2.69,1.14-2.47,2.52.22,1.38,1.56,2.38,2.94,2.6-2.24,1.63-1.81,5.71.72,6.84-1.2-.26-2.53.58-2.81,1.78-.28,1.19.53,2.54,1.71,2.85-.81,3.49-4.63,5.26-8.04,6.34-10.46,3.29-21.52,4.67-32.48,4.06,1.35-1.8,1.6-4.36.63-6.39-.25-.52-.57-1-.77-1.53-.32-.85-.32-1.79-.29-2.7.17-6.31.91-13.51-3.47-18.06-1.03-1.07-2.39-2.16-2.28-3.63.04-.58.33-1.12.56-1.65,1.12-2.56,1.21-5.56.25-8.18,8.34-.12,16.74-.24,24.95,1.24,6.56,1.18,15.59,3.53,20.12,8.76-1.35,1.45-1.83,4.5.74,5.17Z"/>
    <path class="cls-4" d="M28.45,46.85c-2.52.73-5.03,1.46-7.55,2.2.68.55,1.35,1.09,2.03,1.64-1.12.32-2.24.63-3.36.95.44,1.29-.48,2.87-1.82,3.13,1,.41,2.01.82,3.01,1.23-1.4.4-2.86.59-4.31.56.85.6,1.71,1.19,2.56,1.79-.35,1.16-1.41,2.07-2.61,2.26,1.01.26,1.75,1.3,1.66,2.34-.82.47-1.65.95-2.47,1.42.6.85,1.49,1.5,2.49,1.8-1.51.23-2.91,1.06-3.85,2.27.71.68,1.41,1.36,2.12,2.04-.96.63-1.92,1.26-2.88,1.89,0,1.37-.01,2.74-.02,4.11-2.12.04-4.16,1.42-4.99,3.38,1.3.37,2.59.74,3.89,1.11-.83.25-1.67.5-2.5.75,1.18.8-.71,2.24-1.47,3.44-.4.63-.46,1.41-.5,2.16-.24,4.02-.46,8.04-.67,12.06-.04.74-.07,1.51.18,2.2.34.94,1.23,1.67,2.23,1.81-1.1-.11-2.2-.23-3.3-.34,1.31,2.57.94,5.91-.92,8.12.97,1.18.98,3.05.02,4.24.82.45,1.64.9,2.46,1.36-.62.07-1.24.15-1.86.22-.13,1.42.1,3.34,1.51,3.57.08,1.61-.76,3.23-2.11,4.09.83.43,1.65.86,2.48,1.28-.7.79-1.41,1.58-2.11,2.36.83.42,1.65.85,2.48,1.27-2.07.94-2.44,4.26-.64,5.64-1.02,2.32-.42,5.25,1.43,6.98-.75-.31-1.73.21-1.89,1.01,1.33.42,1.02,2.86-.37,2.94.89,2.15,2.35,4.06,4.19,5.47-.88.37-1.64,1.04-2.11,1.88.66.52,1.33,1.04,1.99,1.57-.79,2.63-.63,5.54.44,8.07.38,2.16.76,4.32,1.14,6.48"/>
    <path class="cls-6" d="M299.75,28.95C192.45,7.67,134.54-5.19,94.47,14.32c-31.4,15.29-1.81,61.78,8.87,76.26"/>
    <path class="cls-5" d="M91.74,139.18c-3.1,3.58-6.87,6.56-9.8,10.28-6.59,8.38-8.24,19.5-9.67,30.06-1.58,11.75-3.06,24.28,2.01,35,.65,1.38,1.46,2.76,2.73,3.6,1.35.88,3.03,1.04,4.64,1.12,12,.58,23.9-1.89,35.86-3.01,7.55-.71,15.14-.89,22.72-1.07,28.48-.68,56.97-1.35,85.45-2.03"/>
    <path class="cls-2" d="M423.52,144.98c8.29-.81,16.55-1.96,24.76-3.44,2.37-.43,1.59-4.3.12-5.42-1.77-1.34-6.52-.04-8.47.37-3.12.65-6.16,1.74-8.99,3.22-1.79.94-5.72,5.1-7.41,5.26Z"/>
    <path class="cls-2" d="M439.73,149.61c2.1.17,4.37.13,6.12-1.04,1.75-1.18,3.39-5.41,1.99-6.99-7.09.89-18.18,2.22-24.13,3.76,4.48,2.72,10.83,3.85,16.02,4.27Z"/>
    <path class="cls-4" d="M409.71,81.72c-7.09-10.64-54.54,40.35-60.3,85.57-2.89-6.86-14.19-65.18,2.66-121.49"/>
    <path class="cls-4" d="M368.11,54.5c-1.82,10.04-3.34,19.68-3.62,29.88-.05,1.84-1.83,10.93,0,11.08,0,0,4.98-7.19,5.69-8.26,5.05-7.62,8.72-16.15,10.78-25.05"/>
    <path class="cls-4" d="M406.89,124.14c.31,4.02.77,8.07.42,12.08-.64,7.31-3.89,13.74-5.71,20.71-1.66,6.34-2.12,13.21-1.34,19.83,5.12-1.71,9.4-7.13,10.85-13.73.86-3.88.89-8.33,2.98-11.31.83-1.19,2.04-2.4,1.81-3.98-.13-.88-.69-1.51-1.1-2.23-1.09-1.93-1.08-4.53-1.02-6.93.13-5.73.27-11.45.4-17.18.09-3.68.43-33.93-6.03-30.83-1.97.95-1.47,10.57-1.57,12.68-.33,6.96-.23,13.96.31,20.89Z"/>
    <path class="cls-2" d="M91.81,140.24c12.25,7.67,24.26,7.51,38.07,11.76,7.59,2.34,14.65,6.12,21.65,9.88,8,4.29,16.07,8.64,22.89,14.63,4.75,4.18,9.37,8.56,13.4,13.45,23.71,28.76,50.44,22.5,71.59,21.66"/>
    <path class="cls-2" d="M102,90.59c7.54,1.36,54.22-14.95,58.21-16.41,1.21-.44,4.56-3.22,7.05-4.47,1.69-.85,42.92-37.21,96.3-42.03,14.38-1.3,33.97.84,49.49,4.38"/>
  </g>
  <path class="cls-7" d="M109.16,4.64c-12.33,18.98-9.34,44.56-.15,65.25,9.2,20.68,21.28,41.63,19.55,64.2-2.61,34.11-36.15,60.94-35.28,95.14"/>
  <path class="cls-7" d="M155.39.97c-12.33,18.62-9.34,43.72-.15,64.01s21.28,40.84,19.55,62.98c-2.61,33.46-36.15,59.79-35.28,93.34"/>
  <path class="cls-7" d="M258.14,28.39c-12.33,15.56-9.34,36.53-.15,53.48s21.28,34.12,19.55,52.62c-2.61,27.96-36.15,49.95-35.28,77.98"/>
  <path class="cls-7" d="M214.91,40.69c-12.33,13.53-9.34,31.78-.15,46.52,9.2,14.75,21.28,29.68,19.55,45.78-2.61,24.32-36.15,43.45-35.28,67.84"/>
  <path class="cls-7" d="M279.19,27.79c-2.54,6.76-1.18,14.3.54,21.31,4.39,17.94,10.94,35.35,19.45,51.75.53,3.55,1.53,3.55,3.82,1.14,2.35-1.43,5.73-.76,7.18,1.99l1.27,2.41.05-.05c2.56-3.02,5.51-2.61,8.67,1.71h0c1.47-2.29.9-12.3,1.49-14.95,4.54-20.5,13.95-32.46,26.6-49.22"/>
</svg>